# File created by Blade
# Date/Time:  Thu Jan 22 16:00:44 2015
# Frame Rate: 120.000 fps
#------------------------------------------------------
:FULLY-SPECIFIED
:DEGREES
1609
root 2.649143 37.104708 6.718221 -14.633925 -7.635750 0.746250
RightUpLeg 19.856467 3.125220 -2.966927
RightLeg 0.558177 -0.000000 -0.000000
RightFoot -12.152823 -6.607575 16.702323
RightToeBase 13.795021 -0.000000 -0.000000
LeftUpLeg 19.196010 5.671665 5.595628
LeftLeg 3.597246 -0.000000 -0.000000
LeftFoot -11.299023 8.961898 -18.081181
LeftToeBase 7.944612 -0.000000 -0.000000
Spine 20.159318 -8.015936 -9.154112
RightShoulder 0.852010 -9.875205 -27.759808
RightArm 67.331680 48.380817 87.031717
RightForeArm 28.039991 -0.000000 146.082421
RightHand 29.322208 -0.000000 -32.314221
RightHandThumb1 -24.326973 -0.000000 -32.862282
LeftShoulder -20.880731 57.692283 -8.141096
LeftArm 91.360307 47.684328 12.362474
LeftForeArm 55.613262 -0.000000 102.529230
LeftHand -2.380878 0.000000 -0.159272
LeftHandThumb1 -26.253704 0.000000 33.147579
Head 41.740206 26.859385 10.869620
1610
root 2.655943 37.110690 6.660823 -14.645848 -7.553205 0.717335
RightUpLeg 19.697033 3.078234 -2.941083
RightLeg 0.749672 -0.000000 -0.000000
RightFoot -12.131321 -6.672847 16.651731
RightToeBase 13.648687 -0.000000 -0.000000
LeftUpLeg 18.941036 5.683764 5.616190
LeftLeg 3.924245 -0.000000 -0.000000
LeftFoot -11.347471 8.929296 -18.021888
LeftToeBase 7.953754 -0.000000 -0.000000
Spine 20.668800 -7.572659 -9.126010
RightShoulder 0.883297 -11.792269 -26.978143
RightArm 65.889306 47.843076 85.694001
RightForeArm 26.900871 0.000000 145.477869
RightHand 28.809977 -0.000000 -32.256859
RightHandThumb1 -24.326973 -0.000000 -32.862282
LeftShoulder -21.156700 57.561443 -8.135614
LeftArm 90.169255 48.228380 11.143889
LeftForeArm 55.675346 -0.000000 101.133916
LeftHand -3.115036 -0.000000 -0.240202
LeftHandThumb1 -26.253704 0.000000 33.147579
Head 41.113183 26.603516 10.560357
1611
root 2.662764 37.114540 6.604877 -14.662095 -7.478840 0.718492
RightUpLeg 19.541876 3.044855 -2.945124
RightLeg 0.935917 -0.000000 -0.000000
RightFoot -12.132401 -6.717750 16.587873
RightToeBase 13.650907 -0.000000 -0.000000
LeftUpLeg 18.691809 5.716793 5.613740
LeftLeg 4.256949 -0.000000 -0.000000
LeftFoot -11.413231 8.905197 -17.910973
LeftToeBase 8.044422 -0.000000 -0.000000
Spine 21.074564 -7.088793 -9.167909
RightShoulder 1.101519 -12.697185 -26.182408
RightArm 62.825642 47.361928 83.234081
RightForeArm 25.932617 -0.000000 144.778279
RightHand 28.384362 -0.000000 -32.045576
RightHandThumb1 -24.326973 -0.000000 -32.862282
LeftShoulder -21.260828 57.760167 -7.936707
LeftArm 88.788900 48.593221 9.551570
LeftForeArm 55.860059 -0.000000 99.651073
LeftHand -3.476983 -0.000000 -0.929241
LeftHandThumb1 -26.253704 0.000000 33.147579
Head 40.369863 25.903359 10.049500
1612
root 2.667374 37.120413 6.548789 -14.599454 -7.355241 0.690446
RightUpLeg 19.323599 2.954624 -2.934566
RightLeg 1.111636 -0.000000 -0.000000
RightFoot -12.162461 -6.739678 16.648932
RightToeBase 13.719557 -0.000000 -0.000000
LeftUpLeg 18.364347 5.728274 5.633390
LeftLeg 4.572816 -0.000000 -0.000000
LeftFoot -11.430647 8.812276 -17.923889
LeftToeBase 7.980604 -0.000000 -0.000000
Spine 21.440047 -6.638604 -9.113371
RightShoulder 1.125847 -13.624670 -25.398939
RightArm 59.875603 46.645958 80.871018
RightForeArm 25.328853 -0.000000 144.027572
RightHand 28.127390 -0.000000 -31.356370
RightHandThumb1 -24.326973 -0.000000 -32.862282
LeftShoulder -21.356130 57.687206 -7.775183
LeftArm 87.422503 49.076823 8.145956
LeftForeArm 55.932221 -0.000000 98.121526
LeftHand -3.858118 0.000000 -2.499586
LeftHandThumb1 -26.253704 0.000000 33.147579
Head 39.797429 25.536578 9.828350
1613
root 2.670116 37.125093 6.492039 -14.488814 -7.197508 0.679710
RightUpLeg 19.083128 2.897615 -2.921524
RightLeg 1.248071 -0.000000 -0.000000
RightFoot -12.156747 -6.870696 16.598390
RightToeBase 13.656051 -0.000000 -0.000000
LeftUpLeg 17.978180 5.719788 5.622716
LeftLeg 4.891057 -0.000000 -0.000000
LeftFoot -11.437904 8.747852 -17.846781
LeftToeBase 7.916531 -0.000000 -0.000000
Spine 21.733139 -6.294566 -9.119039
RightShoulder 1.207147 -14.576871 -24.607846
RightArm 57.061988 45.784892 78.586337
RightForeArm 24.497573 -0.000000 143.191795
RightHand 27.616818 -0.000000 -30.768432
RightHandThumb1 -24.326973 -0.000000 -32.862282
LeftShoulder -21.550868 57.663177 -7.681817
LeftArm 85.961649 49.499569 6.579684
LeftForeArm 55.986563 -0.000000 96.545484
LeftHand -4.497078 -0.000000 -3.435918
LeftHandThumb1 -26.253704 0.000000 33.147579
Head 39.251064 25.181349 9.528771
1614
root 2.678686 37.128396 6.442897 -14.452101 -7.119062 0.675021
RightUpLeg 18.923553 2.886639 -2.930384
RightLeg 1.364414 -0.000000 -0.000000
RightFoot -12.149262 -6.878744 16.646673
RightToeBase 13.689863 -0.000000 -0.000000
LeftUpLeg 17.728822 5.765508 5.622326
LeftLeg 5.136232 -0.000000 -0.000000
LeftFoot -11.448033 8.689526 -17.786219
LeftToeBase 7.893444 -0.000000 -0.000000
Spine 22.065621 -5.939012 -9.069036
RightShoulder 1.469762 -15.095951 -24.053753
RightArm 53.707306 44.836752 76.199235
RightForeArm 23.713818 0.000000 142.337214
RightHand 27.094034 -0.000000 -30.004547
RightHandThumb1 -24.326973 -0.000000 -32.862282
LeftShoulder -21.742637 57.693724 -7.637941
LeftArm 84.360640 49.816903 4.793604
LeftForeArm 55.817029 -0.000000 94.850925
LeftHand -5.164745 -0.000000 -5.247781
LeftHandThumb1 -26.253704 0.000000 33.147579
Head 38.632794 24.862450 9.237885
1615
root 2.688824 37.132530 6.391699 -14.343051 -6.978735 0.677598
RightUpLeg 18.709535 2.823998 -2.953452
RightLeg 1.454893 -0.000000 -0.000000
RightFoot -12.137102 -6.947907 16.650498
RightToeBase 13.654201 -0.000000 -0.000000
LeftUpLeg 17.392814 5.720079 5.569274
LeftLeg 5.377037 -0.000000 -0.000000
LeftFoot -11.480473 8.705152 -17.649863
LeftToeBase 7.996299 -0.000000 -0.000000
Spine 22.357693 -5.587822 -9.011717
RightShoulder 1.483142 -15.486878 -23.357229
RightArm 50.404349 43.582272 73.731172
RightForeArm 22.737536 -0.000000 141.352994
RightHand 26.333114 -0.000000 -29.204390
RightHandThumb1 -24.326973 -0.000000 -32.862282
LeftShoulder -21.804558 57.643924 -7.490608
LeftArm 82.736240 50.229530 3.018167
LeftForeArm 55.035573 0.000000 92.954224
LeftHand -6.028419 -0.000000 -5.460082
LeftHandThumb1 -26.253704 0.000000 33.147579
Head 37.997870 24.633666 8.819229
1616
root 2.686502 37.136266 6.341492 -14.124404 -6.790637 0.674505
RightUpLeg 18.404599 2.718913 -2.964688
RightLeg 1.534992 -0.000000 -0.000000
RightFoot -12.134776 -7.028277 16.647119
RightToeBase 13.631085 -0.000000 -0.000000
LeftUpLeg 16.955082 5.679982 5.538877
LeftLeg 5.587321 -0.000000 -0.000000
LeftFoot -11.455094 8.650830 -17.603438
LeftToeBase 7.988752 -0.000000 -0.000000
Spine 22.452713 -5.261900 -8.972500
RightShoulder 1.381859 -16.192159 -22.515002
RightArm 47.749660 42.220620 71.591974
RightForeArm 21.691328 -0.000000 140.203742
RightHand 25.392190 -0.000000 -28.247946
RightHandThumb1 -24.326973 -0.000000 -32.862282
LeftShoulder -21.699631 57.601674 -7.169246
LeftArm 80.877830 50.646246 0.943856
LeftForeArm 54.456151 -0.000000 90.860668
LeftHand -6.847932 0.000000 -5.708591
LeftHandThumb1 -26.253704 0.000000 33.147579
Head 37.465950 24.265550 8.557576
1617
root 2.676379 37.140597 6.280779 -13.837559 -6.501759 0.627241
RightUpLeg 18.078697 2.612871 -2.913911
RightLeg 1.535334 -0.000000 -0.000000
RightFoot -12.098325 -7.190065 16.705126
RightToeBase 13.642994 -0.000000 -0.000000
LeftUpLeg 16.386195 5.493070 5.520399
LeftLeg 5.862394 -0.000000 -0.000000
LeftFoot -11.458719 8.596286 -17.577133
LeftToeBase 7.978682 -0.000000 -0.000000
Spine 22.488209 -5.144746 -8.962074
RightShoulder 1.422479 -16.721176 -21.745570
RightArm 45.190082 40.834917 69.769372
RightForeArm 20.997734 -0.000000 138.969885
RightHand 24.807987 -0.000000 -26.723863
RightHandThumb1 -24.326973 -0.000000 -32.862282
LeftShoulder -21.807515 57.583679 -7.077363
LeftArm 79.115592 50.937836 -0.927988
LeftForeArm 53.903732 0.000000 88.854847
LeftHand -7.705548 -0.000000 -6.296883
LeftHandThumb1 -26.253704 0.000000 33.147579
Head 37.017430 24.087379 8.571096
